<?xml version="1.0" encoding="UTF-8"?>
<svg version="1.1" xmlns="http://www.w3.org/2000/svg" width="1520" height="1520">
<path d="M0 0 C10.23524568 8.35490698 16.50227838 21.27378016 18.40234375 34.2421875 C19.37759938 44.94328014 18.94972308 55.10159001 17.10375977 65.68115234 C16.92916261 66.70307364 16.75456545 67.72499493 16.57467747 68.77788353 C13.97620633 83.75280278 11.05006522 98.66913208 8.16154361 113.59014177 C7.28479673 118.12283912 6.41166687 122.65623337 5.5381012 127.18954468 C4.02875017 135.0197941 2.51730194 142.84963619 1.00439453 150.67919922 C-1.41688382 163.21000549 -3.83376258 175.74165838 -6.25 188.2734375 C-7.07947568 192.57526071 -7.90897934 196.87707852 -8.73849487 201.17889404 C-9.04844857 202.78631694 -9.04844857 202.78631694 -9.36466396 204.42621303 C-10.84306688 212.09292932 -12.32205815 219.75953197 -13.80130005 227.42608643 C-19.28169936 255.83046488 -24.75331547 284.23651831 -30.21484375 312.64453125 C-30.3932221 313.57234374 -30.57160045 314.50015623 -30.75538421 315.45608425 C-32.72618975 325.70708249 -34.69668373 335.95814059 -36.66702271 346.20922852 C-40.10278015 364.08440538 -43.53975169 381.95934881 -46.97702003 399.83423519 C-47.3411339 401.72774408 -47.70524437 403.62125363 -48.06935143 405.51476383 C-53.25820585 432.49892006 -58.45063112 459.48238684 -63.64703751 486.4650898 C-64.78412582 492.36955883 -65.9210191 498.27406538 -67.05773544 504.17860603 C-68.00553854 509.10183236 -68.95343096 514.02504149 -69.90136719 518.94824219 C-70.08902586 519.92287226 -70.27668453 520.89750233 -70.47002983 521.90166664 C-72.90866207 534.56623732 -75.35073591 547.23013887 -77.79598999 559.89343262 C-79.65453825 569.51851294 -81.51132877 579.14393201 -83.3671875 588.76953125 C-83.55050314 589.72019659 -83.73381878 590.67086193 -83.92268944 591.65033531 C-89.31524041 619.61996198 -94.63240458 647.60308057 -99.8930043 675.59781539 C-101.23248785 682.72412785 -102.57634172 689.84960477 -103.92324829 696.97451782 C-104.11048922 697.96506373 -104.29773015 698.95560964 -104.49064505 699.97617209 C-105.23928416 703.93604989 -105.98808223 707.89589745 -106.73746324 711.85563493 C-108.90456291 723.30694222 -111.05709753 734.76072559 -113.1829232 746.21976984 C-114.49714196 753.29716434 -115.82913548 760.37106653 -117.17492783 767.44252455 C-117.94642135 771.49984698 -118.7097105 775.55825734 -119.45056534 779.62129593 C-125.14360223 810.79112618 -125.14360223 810.79112618 -133.3125 822.37109375 C-134.03620789 823.44685165 -134.03620789 823.44685165 -134.77453613 824.54434204 C-146.00231912 840.21082648 -163.21397634 850.67626886 -182.09716797 854.06201172 C-193.9594888 855.71703686 -205.83737849 854.70344754 -217.3125 851.37109375 C-218.49585938 851.03078125 -219.67921875 850.69046875 -220.8984375 850.33984375 C-229.2725139 847.65142009 -235.51453439 843.87510177 -242.3125 838.37109375 C-243.41100297 837.51077211 -244.51135067 836.65280204 -245.61328125 835.796875 C-248.59820894 833.47344688 -251.56713294 831.1305297 -254.53173828 828.78125 C-257.37004268 826.5336429 -260.21585553 824.29562314 -263.0625 822.05859375 C-263.63234619 821.61064453 -264.20219238 821.16269531 -264.78930664 820.70117188 C-272.60716891 814.56141057 -280.46216851 808.46923651 -288.3125 802.37109375 C-297.22230692 795.44994976 -306.12901766 788.52568742 -314.99414062 781.54736328 C-322.7402795 775.45447176 -330.52958011 769.41687114 -338.3125 763.37109375 C-347.22230692 756.44994976 -356.12901766 749.52568742 -364.99414062 742.54736328 C-371.97077833 737.0597394 -378.98395648 731.6191094 -385.99365234 726.17382812 C-389.03992402 723.8055748 -392.08281812 721.43300526 -395.12524414 719.05981445 C-396.61589073 717.89948803 -398.108546 716.74173718 -399.60327148 715.58666992 C-403.45415356 712.61050812 -407.27112056 709.60235232 -411.046875 706.53125 C-411.81507568 705.91709229 -412.58327637 705.30293457 -413.37475586 704.67016602 C-414.84298192 703.49631792 -416.30019532 702.30852173 -417.74438477 701.10522461 C-421.40244292 698.0302675 -421.40244292 698.0302675 -425.9296875 697.671875 C-428.98306163 699.84928114 -431.56146902 702.34131775 -434.125 705.05859375 C-437.99930398 709.10876734 -441.99127982 712.88896713 -446.23510742 716.55200195 C-449.76775618 719.64540492 -453.15721652 722.88894694 -456.5625 726.12109375 C-462.42804258 731.66579485 -468.3305343 737.16114693 -474.29296875 742.6015625 C-477.80278516 745.81137457 -481.2760445 749.0600711 -484.75 752.30859375 C-489.4231671 756.67850844 -494.10651309 761.03653666 -498.8125 765.37109375 C-503.49658444 769.68593243 -508.15979904 774.02243656 -512.8125 778.37109375 C-518.63141901 783.80780794 -524.4543137 789.23974184 -530.328125 794.6171875 C-532.22321628 796.35435451 -534.07702851 798.11387668 -535.921875 799.90625 C-546.22539064 809.73396635 -557.80271413 814.81249853 -572.10766602 814.73461914 C-582.67778782 814.46159912 -591.88857059 811.03754717 -599.3125 803.37109375 C-609.31011053 791.17434723 -615.22173539 776.73576383 -620.0625 761.87109375 C-620.28514526 761.19451721 -620.50779053 760.51794067 -620.73718262 759.82086182 C-627.85837606 738.14906524 -634.27235174 716.24831171 -640.81152344 694.39576721 C-644.82869763 680.97304463 -648.86560729 667.5562996 -652.90625 654.140625 C-653.58217616 651.89624099 -654.25809981 649.65185622 -654.934021 647.4074707 C-655.95851074 644.00574129 -656.98301774 640.60401707 -658.00756454 637.20230484 C-659.6773756 631.6581194 -661.34702866 626.11388647 -663.01623535 620.56951904 C-663.33379728 619.51489597 -663.65135921 618.4602729 -663.97854424 617.37369156 C-664.61555887 615.25686555 -665.25193884 613.13984845 -665.88768196 611.02264023 C-667.45915229 605.79141586 -669.04059112 600.56365242 -670.64413452 595.34216309 C-673.62981069 585.58026991 -676.50177243 575.81951428 -679.02829742 565.9273138 C-680.21282636 561.31350885 -681.45307266 556.71547362 -682.69745636 552.11750221 C-683.27067398 549.93679688 -683.81663068 547.74870726 -684.33245087 545.55371666 C-687.15281639 532.57148688 -687.15281639 532.57148688 -695.65310669 522.97213745 C-700.37228797 520.31940683 -705.27464465 518.46233013 -710.4375 516.87109375 C-711.5460434 516.51900345 -712.65458679 516.16691315 -713.79672241 515.80415344 C-716.49667829 515.08321257 -719.15980168 514.55569861 -721.9140625 514.08984375 C-734.1542534 511.62202804 -745.68233316 507.72489698 -757.43572998 503.55908203 C-763.06420456 501.57891702 -768.72130655 499.68401321 -774.375 497.77734375 C-786.73409691 493.58638769 -799.05938681 489.30172539 -811.37026978 484.97140503 C-822.28475086 481.13247017 -833.22408862 477.38103692 -844.19921875 473.71875 C-846.59769368 472.91547633 -848.99613123 472.11209104 -851.39453125 471.30859375 C-856.00886685 469.76314056 -860.62787411 468.23290656 -865.25 466.7109375 C-889.87002668 458.51905124 -914.80850966 447.78047915 -927.3125 423.37109375 C-929.84033029 417.22106761 -931.81004727 411.02859247 -932.3125 404.37109375 C-932.3640625 403.71109375 -932.415625 403.05109375 -932.46875 402.37109375 C-932.9952473 390.08615684 -928.62245027 378.28340643 -920.5234375 369.109375 C-910.27287839 358.09459009 -898.59434118 351.20310826 -884.89453125 345.265625 C-883.79887344 344.78731735 -882.70321564 344.3090097 -881.57435608 343.81620789 C-870.92713442 339.1789202 -860.24578814 334.6217127 -849.55499268 330.08596802 C-843.68740479 327.59623353 -837.82231197 325.10063245 -831.95703125 322.60546875 C-830.74654114 322.09061417 -829.53605103 321.57575958 -828.28887939 321.04530334 C-815.32863731 315.53088519 -802.38197848 309.98489385 -789.4375 304.43359375 C-788.28176483 303.93799957 -787.12602966 303.4424054 -785.93527222 302.93179321 C-780.07160182 300.41729286 -774.20811349 297.90236831 -768.34472656 295.38720703 C-757.83440442 290.87895389 -747.32237986 286.3746731 -736.81048584 281.87008667 C-730.9777544 279.37058452 -725.14513275 276.87082619 -719.3125 274.37109375 C-716.97916719 273.37109252 -714.64583386 272.37109252 -712.3125 271.37109375 C-711.1575 270.87609375 -710.0025 270.38109375 -708.8125 269.87109375 C-593.3125 220.37109375 -477.8125 170.87109375 -302.45321655 95.71711731 C-300.03689365 94.6815489 -297.62057284 93.6459756 -295.20425415 92.61039734 C-289.24705865 90.05728833 -283.2898278 87.50426189 -277.33251953 84.95141602 C-267.00734564 80.52674729 -256.68246323 76.1014078 -246.359375 71.671875 C-225.86099924 62.87749558 -205.34702787 54.12035835 -184.82296753 45.38607788 C-170.63740394 39.34911396 -156.45884142 33.29646241 -142.29315186 27.2130127 C-127.59087165 20.90049216 -112.87734368 14.61460388 -98.14431763 8.37414551 C-96.2103106 7.55454443 -94.2767586 6.73386861 -92.34371948 5.9119873 C-29.51571087 -20.79062742 -29.51571087 -20.79062742 0 0 Z M-165.953125 150.08203125 C-166.686521 150.66210938 -167.41991699 151.2421875 -168.17553711 151.83984375 C-168.96323486 152.46890625 -169.75093262 153.09796875 -170.5625 153.74609375 C-176.04714773 158.07085111 -181.5378615 162.35023976 -187.25 166.37109375 C-199.427113 174.9532631 -211.35508853 183.88150258 -223.26000977 192.8359375 C-230.76365433 198.47366525 -238.32738679 204.02949878 -245.88916016 209.58886719 C-249.86572518 212.51340121 -253.83896271 215.44244808 -257.8125 218.37109375 C-259.39581696 219.53778263 -260.97915031 220.70444928 -262.5625 221.87109375 C-263.34625 222.44859375 -264.13 223.02609375 -264.9375 223.62109375 C-272.0625 228.87109375 -272.0625 228.87109375 -274.43823242 230.62158203 C-276.01918983 231.78653224 -277.60008192 232.95157109 -279.1809082 234.11669922 C-283.17505828 237.06036355 -287.1703843 240.00240721 -291.16796875 242.94140625 C-298.57269463 248.3874627 -305.96674366 253.84567141 -313.3125 259.37109375 C-321.4623895 265.50137896 -329.6727261 271.54819634 -337.88916016 277.58886719 C-341.86572518 280.51340121 -345.83896271 283.44244808 -349.8125 286.37109375 C-351.39581696 287.53778263 -352.97915031 288.70444928 -354.5625 289.87109375 C-355.34625 290.44859375 -356.13 291.02609375 -356.9375 291.62109375 C-364.0625 296.87109375 -364.0625 296.87109375 -366.43823242 298.62158203 C-368.01918983 299.78653224 -369.60008192 300.95157109 -371.1809082 302.11669922 C-375.17505828 305.06036355 -379.1703843 308.00240721 -383.16796875 310.94140625 C-390.57269463 316.3874627 -397.96674366 321.84567141 -405.3125 327.37109375 C-413.4623895 333.50137896 -421.6727261 339.54819634 -429.88916016 345.58886719 C-433.86572518 348.51340121 -437.83896271 351.44244808 -441.8125 354.37109375 C-443.39581696 355.53778263 -444.97915031 356.70444928 -446.5625 357.87109375 C-447.34625 358.44859375 -448.13 359.02609375 -448.9375 359.62109375 C-456.0625 364.87109375 -456.0625 364.87109375 -458.43823242 366.62158203 C-460.01918983 367.78653224 -461.60008192 368.95157109 -463.1809082 370.11669922 C-467.17505828 373.06036355 -471.1703843 376.00240721 -475.16796875 378.94140625 C-482.57269463 384.3874627 -489.96674366 389.84567141 -497.3125 395.37109375 C-505.4623895 401.50137896 -513.6727261 407.54819634 -521.88916016 413.58886719 C-525.86572518 416.51340121 -529.83896271 419.44244808 -533.8125 422.37109375 C-535.39581696 423.53778263 -536.97915031 424.70444928 -538.5625 425.87109375 C-539.738125 426.73734375 -539.738125 426.73734375 -540.9375 427.62109375 C-548.0625 432.87109375 -548.0625 432.87109375 -550.43823242 434.62158203 C-552.01918983 435.78653224 -553.60008192 436.95157109 -555.1809082 438.11669922 C-559.17505828 441.06036355 -563.1703843 444.00240721 -567.16796875 446.94140625 C-574.57269463 452.3874627 -581.96674366 457.84567141 -589.3125 463.37109375 C-597.45653934 469.49697852 -605.66099986 475.53941271 -613.87158203 481.57568359 C-617.13354079 483.97500793 -620.3926684 486.37816276 -623.65185547 488.78125 C-632.52816388 495.32566212 -641.41636805 501.85366285 -650.3125 508.37109375 C-642.67417368 535.02941595 -634.68852831 561.58309626 -626.70823288 588.14061737 C-625.24783035 593.00148056 -623.78849093 597.86266267 -622.32913685 602.72384071 C-610.35327246 642.61519657 -598.34895997 682.49797995 -586.3125 722.37109375 C-584.40177365 719.50500422 -583.33179407 717.04899812 -582.12719727 713.83911133 C-581.69294937 712.68761093 -581.25870148 711.53611053 -580.81129456 710.34971619 C-580.33376038 709.07171247 -579.85630011 707.79368114 -579.37890625 706.515625 C-578.87300201 705.16972283 -578.36676291 703.8239465 -577.86021423 702.47828674 C-576.48228365 698.81483525 -575.10910988 695.14961695 -573.73678589 691.48406219 C-572.29073715 687.62395084 -570.84043517 683.76543808 -569.390625 679.90673828 C-566.94687177 673.40084201 -564.50590594 666.89390581 -562.06689453 660.38623047 C-558.66355593 651.30558746 -555.2552873 642.22680124 -551.84596062 633.14840508 C-549.16715184 626.01467239 -546.48971288 618.88042548 -543.8125 611.74609375 C-543.53210499 610.99892216 -543.25170998 610.25175056 -542.96281815 609.48193741 C-541.594663 605.83597321 -540.22702271 602.18981754 -538.8604126 598.54327393 C-537.82115024 595.77034631 -536.77948474 592.99833962 -535.73602295 590.22698975 C-533.51833094 584.32834922 -531.31814998 578.42606873 -529.21179771 572.48659897 C-528.54230321 570.59881787 -527.86666667 568.71321863 -527.19091797 566.82766724 C-526.37287036 564.53855774 -525.56659202 562.24518937 -524.77514648 559.94674683 C-521.4431223 550.66801556 -516.59029784 544.82069269 -509.3125 538.37109375 C-508.07837288 537.01919705 -506.86615712 535.64661574 -505.6875 534.24609375 C-502.94468779 531.07513525 -500.13827384 527.96841342 -497.3125 524.87109375 C-494.44778185 521.73025819 -491.60064098 518.58008619 -488.8125 515.37109375 C-485.18305059 511.19380292 -481.4477098 507.11572136 -477.71875 503.02734375 C-475.72601047 500.82756634 -473.7591186 498.61154157 -471.8125 496.37109375 C-468.18305059 492.19380292 -464.4477098 488.11572136 -460.71875 484.02734375 C-458.72601047 481.82756634 -456.7591186 479.61154157 -454.8125 477.37109375 C-451.18305059 473.19380292 -447.4477098 469.11572136 -443.71875 465.02734375 C-441.72601047 462.82756634 -439.7591186 460.61154157 -437.8125 458.37109375 C-434.18305059 454.19380292 -430.4477098 450.11572136 -426.71875 446.02734375 C-424.72601047 443.82756634 -422.7591186 441.61154157 -420.8125 439.37109375 C-417.18305059 435.19380292 -413.4477098 431.11572136 -409.71875 427.02734375 C-407.72601047 424.82756634 -405.7591186 422.61154157 -403.8125 420.37109375 C-400.18305059 416.19380292 -396.4477098 412.11572136 -392.71875 408.02734375 C-390.72601047 405.82756634 -388.7591186 403.61154157 -386.8125 401.37109375 C-383.18305059 397.19380292 -379.4477098 393.11572136 -375.71875 389.02734375 C-373.72601047 386.82756634 -371.7591186 384.61154157 -369.8125 382.37109375 C-366.18305059 378.19380292 -362.4477098 374.11572136 -358.71875 370.02734375 C-356.72601047 367.82756634 -354.7591186 365.61154157 -352.8125 363.37109375 C-349.18305059 359.19380292 -345.4477098 355.11572136 -341.71875 351.02734375 C-339.72601047 348.82756634 -337.7591186 346.61154157 -335.8125 344.37109375 C-332.18305059 340.19380292 -328.4477098 336.11572136 -324.71875 332.02734375 C-322.72601047 329.82756634 -320.7591186 327.61154157 -318.8125 325.37109375 C-315.18305059 321.19380292 -311.4477098 317.11572136 -307.71875 313.02734375 C-305.72601047 310.82756634 -303.7591186 308.61154157 -301.8125 306.37109375 C-298.18305059 302.19380292 -294.4477098 298.11572136 -290.71875 294.02734375 C-288.72601047 291.82756634 -286.7591186 289.61154157 -284.8125 287.37109375 C-281.18305059 283.19380292 -277.4477098 279.11572136 -273.71875 275.02734375 C-271.72601047 272.82756634 -269.7591186 270.61154157 -267.8125 268.37109375 C-264.18305059 264.19380292 -260.4477098 260.11572136 -256.71875 256.02734375 C-254.72601047 253.82756634 -252.7591186 251.61154157 -250.8125 249.37109375 C-247.18305059 245.19380292 -243.4477098 241.11572136 -239.71875 237.02734375 C-237.72601047 234.82756634 -235.7591186 232.61154157 -233.8125 230.37109375 C-230.18305059 226.19380292 -226.4477098 222.11572136 -222.71875 218.02734375 C-220.72601047 215.82756634 -218.7591186 213.61154157 -216.8125 211.37109375 C-213.18305059 207.19380292 -209.4477098 203.11572136 -205.71875 199.02734375 C-203.72601047 196.82756634 -201.7591186 194.61154157 -199.8125 192.37109375 C-196.18305059 188.19380292 -192.4477098 184.11572136 -188.71875 180.02734375 C-186.72601047 177.82756634 -184.7591186 175.61154157 -182.8125 173.37109375 C-180.02435902 170.16210131 -177.17721815 167.01192931 -174.3125 163.87109375 C-166.88853146 155.96107943 -166.88853146 155.96107943 -160.3125 147.37109375 C-163.02113641 147.37109375 -163.84734883 148.39979499 -165.953125 150.08203125 Z " fill="#000000" transform="translate(1216.3125,359.62890625)"/>
</svg>