<?xml version="1.0" encoding="UTF-8"?>
<svg version="1.1" xmlns="http://www.w3.org/2000/svg" width="1024" height="1024">
<path d="M0 0 C1.16972351 0.00304138 2.33944702 0.00608276 3.5446167 0.00921631 C22.79149403 0.08284879 41.47366692 1.0351957 60.4375 4.4375 C61.63826172 4.65180664 62.83902344 4.86611328 64.07617188 5.08691406 C111.31201184 13.82439981 158.033253 31.65175142 197.4375 59.4375 C197.97358887 59.81052246 198.50967773 60.18354492 199.06201172 60.56787109 C210.87139501 68.78704051 222.38184546 77.4006409 232.9609375 87.171875 C234.99154134 89.0295252 237.05152674 90.82991489 239.13671875 92.625 C243.90669954 96.78955159 248.40094262 101.20895735 252.875 105.6875 C253.71538818 106.52869385 254.55577637 107.3698877 255.42163086 108.23657227 C261.17674913 114.04883276 266.41811908 119.97969929 271.4375 126.4375 C273.01738537 128.29460546 274.6009403 130.14859329 276.1875 132 C287.7319187 145.88546955 297.49433926 160.77270984 306.4375 176.4375 C306.9634375 177.34709473 307.489375 178.25668945 308.03125 179.19384766 C329.16582503 215.94438423 342.69609769 256.63629636 349.4375 298.4375 C349.66397217 299.75862793 349.66397217 299.75862793 349.89501953 301.10644531 C355.82499336 337.07010535 354.86639444 376.60399707 348.4375 412.4375 C348.22319336 413.63826172 348.00888672 414.83902344 347.78808594 416.07617188 C339.0735536 463.18792309 321.31157012 510.20110813 293.4375 549.4375 C292.66367257 550.54790545 291.89025766 551.65859845 291.1171875 552.76953125 C283.25998843 563.98542599 275.00174284 574.89353629 265.703125 584.9609375 C263.8454748 586.99154134 262.04508511 589.05152674 260.25 591.13671875 C256.08544841 595.90669954 251.66604265 600.40094262 247.1875 604.875 C246.34630615 605.71538818 245.5051123 606.55577637 244.63842773 607.42163086 C238.82599413 613.17692054 232.89429378 618.41666502 226.4375 623.4375 C224.55980452 625.03851074 222.68495955 626.64286873 220.8125 628.25 C171.87037991 669.00360579 109.35577305 694.46065585 46.4375 702.4375 C45.79341187 702.52330322 45.14932373 702.60910645 44.48571777 702.69750977 C30.10472898 704.58000868 15.80243201 704.83752666 1.3125 704.8125 C0.12529358 704.81195618 -1.06191284 704.81141235 -2.28509521 704.81085205 C-21.67765395 704.77012028 -40.45507018 703.86556701 -59.5625 700.4375 C-60.76326172 700.22319336 -61.96402344 700.00888672 -63.20117188 699.78808594 C-140.63906235 685.46395272 -219.31812379 643.91295294 -268.5390625 581.01953125 C-270.73964247 578.21145527 -273.05212639 575.52007665 -275.375 572.8125 C-316.12860579 523.87037991 -341.58565585 461.35577305 -349.5625 398.4375 C-349.69120483 397.4713678 -349.69120483 397.4713678 -349.82250977 396.48571777 C-351.70500868 382.10472898 -351.96252666 367.80243201 -351.9375 353.3125 C-351.93695618 352.12529358 -351.93641235 350.93808716 -351.93585205 349.71490479 C-351.89512028 330.32234605 -350.99056701 311.54492982 -347.5625 292.4375 C-347.34819336 291.23673828 -347.13388672 290.03597656 -346.91308594 288.79882812 C-337.93855399 240.28148946 -319.28061157 192.74024012 -290.5625 152.4375 C-290.03543457 151.6954834 -289.50836914 150.9534668 -288.96533203 150.18896484 C-281.70589748 140.02575648 -274.16560501 130.22348873 -265.85742188 120.89550781 C-264.72073828 119.61566723 -263.6011217 118.32071092 -262.484375 117.0234375 C-251.26038566 104.16445758 -239.0408238 91.91364264 -225.5625 81.4375 C-223.70539454 79.85761463 -221.85140671 78.2740597 -220 76.6875 C-206.11193002 65.14091929 -191.21844137 55.40102785 -175.5625 46.4375 C-174.71236328 45.9439502 -173.86222656 45.45040039 -172.98632812 44.94189453 C-120.57180452 14.64282925 -60.37281334 -0.33627554 0 0 Z M47.4375 247.4375 C45.49397803 248.25732461 43.55045589 249.07714883 41.60693359 249.89697266 C33.88161985 253.15628403 26.15703112 256.41730747 18.43383789 259.68164062 C7.94166224 264.11615469 -2.55534021 268.53861173 -13.0625 272.9375 C-40.74580424 284.53110744 -68.38744474 296.2240811 -96.00372314 307.97637939 C-108.49041691 313.28992572 -120.98883361 318.5751467 -133.49316406 323.8470459 C-140.06025736 326.61680818 -146.62517179 329.39172796 -153.18994141 332.16699219 C-156.707078 333.65384339 -160.22501716 335.13876923 -163.74365234 336.62207031 C-167.7747421 338.3219866 -171.80299216 340.02846758 -175.82919312 341.7399292 C-177.28530704 342.35774444 -178.74231908 342.97344848 -180.2003479 343.58673096 C-199.54454785 350.94954258 -199.54454785 350.94954258 -214.5 364.3125 C-215.83962173 368.25256392 -215.72372546 370.44578748 -214.5625 374.4375 C-207.89965493 383.11938904 -195.8028056 385.51332725 -185.8125 388.6875 C-184.69965637 389.04433868 -184.69965637 389.04433868 -183.56433105 389.40838623 C-173.02661832 392.78693053 -162.4500597 396.01304727 -151.8125 399.0625 C-150.08435059 399.5579834 -150.08435059 399.5579834 -148.32128906 400.06347656 C-130.90545282 404.96676078 -113.49418375 405.38139858 -97.20703125 396.703125 C-91.7974159 393.65400149 -86.63250272 390.30340068 -81.5 386.8125 C-79.84258385 385.69511084 -78.18502551 384.57793258 -76.52734375 383.4609375 C-75.61259277 382.84250977 -74.6978418 382.22408203 -73.75537109 381.58691406 C-69.9202264 379.00512679 -66.0715491 376.44403764 -62.22265625 373.8828125 C-51.80520557 366.94655725 -41.43363206 359.94273997 -31.0625 352.9375 C-20.01599728 345.47607709 -8.96309985 338.02563753 2.13401794 330.63964844 C8.94480888 326.10476678 15.72974155 321.53263286 22.5 316.9375 C23.09258606 316.53562469 23.68517212 316.13374939 24.29571533 315.71969604 C32.96949595 309.83456942 41.58545888 303.87485275 50.1171875 297.78515625 C50.67873535 297.38925293 51.2402832 296.99334961 51.81884766 296.58544922 C53.41690905 295.45210311 54.99769338 294.29452251 56.578125 293.13671875 C59.54569372 291.37320455 60.92961497 290.98247666 64.3125 291.1875 C65.09367187 291.22359375 65.87484375 291.2596875 66.6796875 291.296875 C67.25976562 291.34328125 67.83984375 291.3896875 68.4375 291.4375 C68.86263092 297.6018983 68.54100301 300.53331347 64.4375 305.4375 C60.41417434 309.7374787 56.22164648 313.77419055 51.75683594 317.61157227 C47.56569335 321.27235715 43.6274704 325.13554301 39.71875 329.09375 C39.01657349 329.79971313 38.31439697 330.50567627 37.59094238 331.23303223 C35.37065397 333.46541358 33.15366045 335.70102111 30.9375 337.9375 C28.01340521 340.88840378 25.08586943 343.83583203 22.15625 346.78125 C21.173078 347.77686951 21.173078 347.77686951 20.17004395 348.79260254 C17.04462991 351.93429374 13.87876271 354.96400202 10.51953125 357.85546875 C5.92561965 361.82155784 1.67336565 366.09412304 -2.59375 370.40625 C-3.42910278 371.2453894 -4.26445557 372.08452881 -5.12512207 372.94909668 C-7.77337086 375.609469 -10.41834406 378.27306013 -13.0625 380.9375 C-16.54912601 384.45087273 -20.03914926 387.96081971 -23.53125 391.46875 C-24.31794067 392.26373901 -25.10463135 393.05872803 -25.91516113 393.87780762 C-30.11385685 398.09488819 -34.39265599 402.14151793 -38.91447449 406.0113678 C-45.07703367 411.34418821 -50.10942398 417.24914467 -50.72265625 425.625 C-50.42223559 432.5466919 -47.11079815 438.12755086 -42.09120178 442.80996704 C-38.07576277 446.30989083 -33.97655528 449.22106967 -29.41015625 451.94921875 C-19.39868363 458.07501895 -9.71301298 464.66510208 0 471.25 C1.89949219 472.53466933 3.79915256 473.81909002 5.69897461 475.10327148 C11.28098445 478.87765985 16.85962272 482.6570081 22.4375 486.4375 C24.01040283 487.50327562 25.58331874 488.56903195 27.15625 489.63476562 C29.97243152 491.54294426 32.78840601 493.45142787 35.60424805 495.36010742 C38.16492899 497.09565138 40.7262815 498.83019633 43.28833008 500.5637207 C43.89158615 500.97192551 44.49484222 501.38013031 45.11637878 501.80070496 C46.28333442 502.59033496 47.45033529 503.37989814 48.61738586 504.16938782 C52.06942768 506.50618522 55.51162651 508.85685742 58.94921875 511.21484375 C71.55991405 519.82216362 84.56360473 527.89496096 100.4375 527.4375 C105.45561124 526.29937168 108.56019553 523.72892523 111.5625 519.625 C121.21050739 503.60616165 124.62943855 484.71746004 127.875 466.5625 C128.03712982 465.66412415 128.19925964 464.76574829 128.36630249 463.84014893 C140.46781863 396.55471579 150.84978444 328.78714774 159.79006958 261.00909424 C160.04979676 259.0426027 160.31289783 257.07655304 160.57980347 255.11102295 C163.57394608 237.65867293 163.57394608 237.65867293 158.4375 221.4375 C153.09126372 216.06592611 149.38651209 214.27930509 141.6875 214.125 C110.57157518 214.22562642 75.67202307 235.5233313 47.4375 247.4375 Z " fill="#000000" transform="translate(511.5625,159.5625)"/>
</svg>
